<svg width="383" height="368" viewBox="0 0 383 368" fill="none" xmlns="http://www.w3.org/2000/svg">
<g filter="url(#filter0_d_71_107)">
<path d="M32.2863 307.351C71.9314 302.885 151.098 379.994 278.667 277.631L251.826 265.903C283.588 261.139 327.394 230.451 340.748 185.43L320.37 182.642C331.498 169.541 334.204 159.23 336.986 127.073C340.463 86.8757 341.855 71.6901 350.201 58.2911C356.601 48.0167 274.509 26.1136 254.822 55.7779L269.513 28C242.388 33.6574 222.506 29.9482 187.528 59.0756C176.45 68.3008 178.096 71.4038 189.224 36.2686C165.344 48.1788 75.189 126.715 76.8582 196.748C78.5275 266.78 43.6465 299.312 32.2863 307.351Z" fill="#6EFFB1" fill-opacity="0.41" shape-rendering="crispEdges"/>
</g>
<g filter="url(#filter1_d_71_107)">
<path d="M234.934 273.14C154.335 320.192 109.808 276.036 77.6811 279.655C86.887 273.14 104.961 245.923 103.608 189.171C102.255 132.42 140.62 98.9285 159.971 89.2769C150.953 117.749 136.975 164.849 153.207 125.47C169.44 86.0919 217.461 67.0782 239.443 62.4937L239.443 89.2769C251.279 60.322 330.525 68.2846 325.114 76.9711C318.351 87.8291 317.224 100.135 314.405 132.709C312.151 158.769 293.551 186.517 284.533 197.134L301.442 202.925C290.62 239.408 236.437 256.25 210.698 260.111L234.934 273.14Z" fill="#B5FFA2"/>
<path d="M234.934 273.14C154.335 320.192 109.808 276.036 77.6811 279.655C86.887 273.14 104.961 245.923 103.608 189.171C102.255 132.42 140.62 98.9285 159.971 89.2769C150.953 117.749 136.975 164.849 153.207 125.47C169.44 86.0919 217.461 67.0782 239.443 62.4937L239.443 89.2769C251.279 60.322 330.525 68.2846 325.114 76.9711C318.351 87.8291 317.224 100.135 314.405 132.709C312.151 158.769 293.551 186.517 284.533 197.134L301.442 202.925C290.62 239.408 236.437 256.25 210.698 260.111L234.934 273.14Z" stroke="black"/>
</g>
<path d="M218.588 160.216C215.582 147.91 214.305 116.494 233.243 89.2769" stroke="black" stroke-width="2"/>
<path d="M149.826 204.372C147.759 188.93 145.993 152.109 155.462 128.366" stroke="black" stroke-width="2"/>
<path d="M154.898 232.604C161.85 239.118 180.6 251.424 199.989 248.529" stroke="black" stroke-width="2"/>
<path d="M217.461 184.104C228.734 189.412 255.901 198.437 274.388 192.067" stroke="black" stroke-width="2"/>
<path d="M111.499 251.424C121.268 239.118 154.786 206.689 210.698 175.418C266.61 144.146 292.988 111.234 299.187 98.6873" stroke="black" stroke-width="2"/>
<defs>
<filter id="filter0_d_71_107" x="0.286255" y="0" width="382.269" height="367.03" filterUnits="userSpaceOnUse" color-interpolation-filters="sRGB">
<feFlood flood-opacity="0" result="BackgroundImageFix"/>
<feColorMatrix in="SourceAlpha" type="matrix" values="0 0 0 0 0 0 0 0 0 0 0 0 0 0 0 0 0 0 127 0" result="hardAlpha"/>
<feOffset dy="4"/>
<feGaussianBlur stdDeviation="16"/>
<feComposite in2="hardAlpha" operator="out"/>
<feColorMatrix type="matrix" values="0 0 0 0 0 0 0 0 0 0 0 0 0 0 0 0 0 0 1 0"/>
<feBlend mode="normal" in2="BackgroundImageFix" result="effect1_dropShadow_71_107"/>
<feBlend mode="normal" in="SourceGraphic" in2="effect1_dropShadow_71_107" result="shape"/>
</filter>
<filter id="filter1_d_71_107" x="41.3923" y="29.8786" width="320.487" height="305.607" filterUnits="userSpaceOnUse" color-interpolation-filters="sRGB">
<feFlood flood-opacity="0" result="BackgroundImageFix"/>
<feColorMatrix in="SourceAlpha" type="matrix" values="0 0 0 0 0 0 0 0 0 0 0 0 0 0 0 0 0 0 127 0" result="hardAlpha"/>
<feOffset dy="4"/>
<feGaussianBlur stdDeviation="18"/>
<feComposite in2="hardAlpha" operator="out"/>
<feColorMatrix type="matrix" values="0 0 0 0 0 0 0 0 0 0 0 0 0 0 0 0 0 0 1 0"/>
<feBlend mode="normal" in2="BackgroundImageFix" result="effect1_dropShadow_71_107"/>
<feBlend mode="normal" in="SourceGraphic" in2="effect1_dropShadow_71_107" result="shape"/>
</filter>
</defs>
</svg>
