<svg width="294" height="555" viewBox="0 0 294 555" fill="none" xmlns="http://www.w3.org/2000/svg">
<g filter="url(#filter0_d_71_93)">
<path d="M213.323 217.9L232.595 206.457C316.127 377.81 196.105 424.923 186.823 452.778C177.542 480.634 194.653 497.512 206.095 508.185C211.185 512.933 188.863 529.288 171.987 508.185C158.487 491.303 149.245 471.911 145.87 452.778C38.0669 423.87 20.348 285.972 38.0669 234.763L60.3503 249.819C48.8752 223.483 61.1739 170.844 70.7365 149.741C74.3928 160.433 82.0429 175.402 83.3929 149.741C84.7429 124.08 99.7056 58.0149 107.018 28.1899C114.331 49.5739 126.639 98.5804 137.439 99.2557C148.239 99.931 163.412 133.984 168.756 149.741C186.306 122.054 204.323 180.196 213.323 217.9Z" fill="#6EFFB1" fill-opacity="0.41" shape-rendering="crispEdges"/>
</g>
<g filter="url(#filter1_d_71_93)">
<path d="M197.062 245.001L215.732 237.774C275.355 360.031 175.381 423.268 168.756 443.142C162.131 463.016 188.63 494.334 187.426 499.152C186.221 503.97 187.426 514.208 175.381 499.152C165.745 487.107 158.518 456.793 156.109 443.142C49.1485 387.253 47.7031 300.207 60.3504 263.671L79.6225 263.671C71.4318 244.88 83.0352 210.07 89.8608 195.014C92.4705 202.642 97.9309 213.322 98.8946 195.014C99.8582 176.705 110.538 129.569 115.758 108.29C120.977 123.547 133.343 154.181 141.052 154.663C148.761 155.145 158.317 177.749 162.131 188.991C174.658 169.237 190.638 218.1 197.062 245.001Z" fill="#B5FFA2"/>
<path d="M197.062 245.001L215.732 237.774C275.355 360.031 175.381 423.268 168.756 443.142C162.131 463.016 188.63 494.334 187.426 499.152C186.221 503.97 187.426 514.208 175.381 499.152C165.745 487.107 158.518 456.793 156.109 443.142C49.1485 387.253 47.7031 300.207 60.3504 263.671L79.6225 263.671C71.4318 244.88 83.0352 210.07 89.8608 195.014C92.4705 202.642 97.9309 213.322 98.8946 195.014C99.8582 176.705 110.538 129.569 115.758 108.29C120.977 123.547 133.343 154.181 141.052 154.663C148.761 155.145 158.317 177.749 162.131 188.991C174.658 169.237 190.638 218.1 197.062 245.001Z" stroke="black"/>
</g>
<path d="M210.311 384.121C202.281 390.345 181.644 403.996 163.336 408.814" stroke="black" stroke-width="2"/>
<path d="M213.925 255.841C211.717 284.95 198.507 352.081 163.336 387.735" stroke="black" stroke-width="2"/>
<path d="M178.994 226.331C178.994 249.819 173.815 303.419 153.097 329.919" stroke="black" stroke-width="2"/>
<path d="M168.756 198.627C166.347 212.078 158.638 243.917 147.075 263.671" stroke="black" stroke-width="2"/>
<path d="M146.473 174.537C147.276 186.181 146.593 211.395 137.439 219.104" stroke="black" stroke-width="2"/>
<path d="M107.326 196.218C107.728 199.029 111.542 207.42 123.587 218.502" stroke="black" stroke-width="2"/>
<path d="M99.4969 216.093C100.701 220.309 96.4856 222.718 130.212 270.296" stroke="black" stroke-width="2"/>
<path d="M89.2586 249.217C96.0841 265.678 114.433 304.383 133.223 327.51" stroke="black" stroke-width="2"/>
<path d="M67.5775 294.988C80.6263 320.483 113.469 376.172 140.45 394.962" stroke="black" stroke-width="2"/>
<path d="M92.8721 384.121C101.504 393.757 123.828 413.15 144.064 413.632" stroke="black" stroke-width="2"/>
<path d="M119.973 143.22C128.606 191.802 138.041 247.41 140.45 288.965C142.871 330.729 150.086 408.211 156.109 425.677" stroke="black" stroke-width="2"/>
<defs>
<filter id="filter0_d_71_93" x="0.0955811" y="0.18988" width="293.904" height="554.521" filterUnits="userSpaceOnUse" color-interpolation-filters="sRGB">
<feFlood flood-opacity="0" result="BackgroundImageFix"/>
<feColorMatrix in="SourceAlpha" type="matrix" values="0 0 0 0 0 0 0 0 0 0 0 0 0 0 0 0 0 0 127 0" result="hardAlpha"/>
<feOffset dy="4"/>
<feGaussianBlur stdDeviation="16"/>
<feComposite in2="hardAlpha" operator="out"/>
<feColorMatrix type="matrix" values="0 0 0 0 0 0 0 0 0 0 0 0 0 0 0 0 0 0 1 0"/>
<feBlend mode="normal" in2="BackgroundImageFix" result="effect1_dropShadow_71_93"/>
<feBlend mode="normal" in="SourceGraphic" in2="effect1_dropShadow_71_93" result="shape"/>
</filter>
<filter id="filter1_d_71_93" x="22.436" y="78.5134" width="244.686" height="465.034" filterUnits="userSpaceOnUse" color-interpolation-filters="sRGB">
<feFlood flood-opacity="0" result="BackgroundImageFix"/>
<feColorMatrix in="SourceAlpha" type="matrix" values="0 0 0 0 0 0 0 0 0 0 0 0 0 0 0 0 0 0 127 0" result="hardAlpha"/>
<feOffset dy="4"/>
<feGaussianBlur stdDeviation="16"/>
<feComposite in2="hardAlpha" operator="out"/>
<feColorMatrix type="matrix" values="0 0 0 0 0 0 0 0 0 0 0 0 0 0 0 0 0 0 1 0"/>
<feBlend mode="normal" in2="BackgroundImageFix" result="effect1_dropShadow_71_93"/>
<feBlend mode="normal" in="SourceGraphic" in2="effect1_dropShadow_71_93" result="shape"/>
</filter>
</defs>
</svg>
