<svg width="365" height="341" viewBox="0 0 365 341" fill="none" xmlns="http://www.w3.org/2000/svg">
<g filter="url(#filter0_d_71_85)">
<path d="M44.6473 150.32C27.2458 104.99 61.5648 55.2821 72.7916 28C76.3 32.6636 70.18 45.7795 108.351 45.7795C146.522 45.7795 154.699 56.5766 161.014 62.6393L149.106 40.4485C201.984 49.1897 249.355 63.5012 253.565 78.658V54.5207C345.625 116.08 342.945 243.283 317.451 287.121C176.554 332.452 75.4979 276.429 59.802 246.661H83.6166C16.8171 204.128 34.4372 169.375 34.905 148.155L44.6473 150.32Z" fill="#6EFFB1" fill-opacity="0.41" shape-rendering="crispEdges"/>
</g>
<g filter="url(#filter1_d_71_85)">
<path d="M75.5055 168.181C62.0828 133.109 76.0468 82.1239 84.7066 61.0156C87.4128 64.6239 100.186 71.8404 129.629 71.8404C159.073 71.8404 176.176 81.2219 181.047 85.9126L174.552 71.8404C236.037 74.4383 257.903 98.5415 261.151 110.268V97.2786C332.161 144.908 310.584 224.65 290.919 258.568C182.238 293.64 128.006 273.181 114.475 258.568H129.629C78.1035 225.661 65.9436 184.599 66.3045 168.181H75.5055Z" fill="#B5FFA2"/>
<path d="M75.5055 168.181C62.0828 133.109 76.0468 82.1239 84.7066 61.0156C87.4128 64.6239 100.186 71.8404 129.629 71.8404C159.073 71.8404 176.176 81.2219 181.047 85.9126L174.552 71.8404C236.037 74.4383 257.903 98.5415 261.151 110.268V97.2786C332.161 144.908 310.584 224.65 290.919 258.568C182.238 293.64 128.006 273.181 114.475 258.568H129.629C78.1035 225.661 65.9436 184.599 66.3045 168.181H75.5055Z" stroke="black" stroke-width="2"/>
</g>
<path d="M270.352 219.599C252.491 222.305 204.97 232.372 157.774 250.991" stroke="black" stroke-width="2"/>
<path d="M201.073 182.794C174.733 187.485 115.449 192.753 89.0365 176.3" stroke="black" stroke-width="2"/>
<path d="M269.81 192.537C268.728 177.202 265.264 141.444 260.068 121.093" stroke="black" stroke-width="2"/>
<path d="M184.295 96.1961C190.609 111.531 202.48 144.475 199.449 153.567" stroke="black" stroke-width="2"/>
<path d="M93.9077 81.5827C101.124 100.706 129.846 143.176 187.001 160.062C244.156 176.949 278.29 217.975 288.213 236.377" stroke="black" stroke-width="2"/>
<defs>
<filter id="filter0_d_71_85" x="0.46521" y="0" width="364.294" height="340.185" filterUnits="userSpaceOnUse" color-interpolation-filters="sRGB">
<feFlood flood-opacity="0" result="BackgroundImageFix"/>
<feColorMatrix in="SourceAlpha" type="matrix" values="0 0 0 0 0 0 0 0 0 0 0 0 0 0 0 0 0 0 127 0" result="hardAlpha"/>
<feOffset dy="4"/>
<feGaussianBlur stdDeviation="16"/>
<feComposite in2="hardAlpha" operator="out"/>
<feColorMatrix type="matrix" values="0 0 0 0 0 0 0 0 0 0 0 0 0 0 0 0 0 0 1 0"/>
<feBlend mode="normal" in2="BackgroundImageFix" result="effect1_dropShadow_71_85"/>
<feBlend mode="normal" in="SourceGraphic" in2="effect1_dropShadow_71_85" result="shape"/>
</filter>
<filter id="filter1_d_71_85" x="33.2968" y="31.0067" width="309.812" height="283.926" filterUnits="userSpaceOnUse" color-interpolation-filters="sRGB">
<feFlood flood-opacity="0" result="BackgroundImageFix"/>
<feColorMatrix in="SourceAlpha" type="matrix" values="0 0 0 0 0 0 0 0 0 0 0 0 0 0 0 0 0 0 127 0" result="hardAlpha"/>
<feOffset dy="4"/>
<feGaussianBlur stdDeviation="16"/>
<feComposite in2="hardAlpha" operator="out"/>
<feColorMatrix type="matrix" values="0 0 0 0 0 0 0 0 0 0 0 0 0 0 0 0 0 0 1 0"/>
<feBlend mode="normal" in2="BackgroundImageFix" result="effect1_dropShadow_71_85"/>
<feBlend mode="normal" in="SourceGraphic" in2="effect1_dropShadow_71_85" result="shape"/>
</filter>
</defs>
</svg>
